<svg width="2093" height="2771" xmlns="http://www.w3.org/2000/svg" xmlns:xlink="http://www.w3.org/1999/xlink" xml:space="preserve" overflow="hidden"><defs><clipPath id="clip0"><rect x="191" y="502" width="2093" height="2771"/></clipPath></defs><g clip-path="url(#clip0)" transform="translate(-191 -502)"><rect x="978" y="511" width="519" height="233" stroke="#000000" stroke-width="13.75" stroke-linejoin="round" stroke-miterlimit="10" fill="none"/><text font-family="Arial,Arial_MSFontService,sans-serif" font-weight="700" font-size="83" transform="matrix(1 0 0 1 1054.17 608)">Medfødte<tspan font-size="83" x="2.29175" y="99">kvaliteter</tspan></text><rect x="978" y="1031" width="519" height="233" stroke="#000000" stroke-width="13.75" stroke-linejoin="round" stroke-miterlimit="10" fill="none"/><text font-family="Arial,Arial_MSFontService,sans-serif" font-weight="700" font-size="83" transform="matrix(1 0 0 1 1022.08 1127)">Sårbarhed<tspan font-size="83" x="407.917" y="0">/</tspan><tspan font-size="83" x="80.2083" y="99">smerte</tspan></text><rect x="198" y="1420" width="520" height="234" stroke="#000000" stroke-width="13.75" stroke-linejoin="round" stroke-miterlimit="10" fill="none"/><text font-family="Arial,Arial_MSFontService,sans-serif" font-weight="700" font-size="83" transform="matrix(1 0 0 1 274.639 1517)">Adfærds-<tspan font-size="83" x="20.625" y="99">mønstre</tspan></text><rect x="198" y="1940" width="520" height="233" stroke="#000000" stroke-width="13.75" stroke-linejoin="round" stroke-miterlimit="10" fill="none"/><text font-family="Arial,Arial_MSFontService,sans-serif" font-weight="700" font-size="83" transform="matrix(1 0 0 1 361.722 2037)">Livs<tspan font-size="83" x="165" y="0">-</tspan><tspan font-size="83" x="-75.625" y="99">lektioner</tspan></text><path d="M1247.7 1688.52C1245.4 1689.01 1241.74 1689.59 1236.69 1690.23 1231.62 1690.86 1228.27 1691.45 1226.66 1692.05 1224.19 1693.02 1222.89 1694.26 1222.77 1695.79 1222.66 1697.3 1223.55 1698.62 1225.47 1699.74 1227.41 1700.87 1229.95 1701.44 1233.07 1701.45 1236.55 1701.46 1239.87 1700.83 1242.99 1699.53 1245.26 1698.55 1246.72 1697.34 1247.36 1695.93 1247.81 1695 1247.95 1693.25 1247.81 1690.67 1247.77 1689.95 1247.73 1689.24 1247.7 1688.52ZM1305.86 1672.1C1301.86 1672.41 1298.94 1673.64 1296.99 1675.79 1295.02 1677.96 1294.64 1681.06 1295.94 1685.13 1297.3 1689.41 1299.74 1692.47 1303.32 1694.25 1306.94 1696.05 1310.96 1696.77 1315.3 1696.44 1319.96 1696.07 1323.46 1694.74 1325.7 1692.43 1327.9 1690.14 1327.99 1687 1326.05 1683.05 1324.04 1678.93 1321.15 1676.02 1317.46 1674.25 1313.81 1672.5 1309.97 1671.78 1305.86 1672.1ZM1298.52 1664.29C1305.95 1663.75 1313.02 1665.43 1320.08 1669.23 1319.16 1667.36 1318.24 1665.5 1317.32 1663.64 1322.3 1663.17 1327.27 1662.65 1332.22 1662.08 1339.2 1673.86 1346.18 1685.65 1353.17 1697.43 1355.92 1702.08 1357.26 1705.64 1357.09 1708.11 1356.92 1710.58 1355.8 1712.64 1353.74 1714.24 1351.66 1715.86 1348.43 1717.28 1344.08 1718.48 1339.7 1719.68 1333.85 1720.6 1326.55 1721.18 1312.78 1722.26 1302.64 1721.64 1296.27 1719.57 1290 1717.54 1286.52 1714.65 1285.68 1711.04 1285.6 1710.69 1285.53 1710.25 1285.46 1709.74 1293.28 1709.9 1301.14 1709.96 1309.03 1709.94 1309.9 1711.33 1311.15 1712.24 1312.75 1712.67 1314.98 1713.3 1318.22 1713.46 1322.44 1713.13 1327.85 1712.71 1331.71 1711.94 1334.02 1710.87 1335.57 1710.16 1336.51 1709.14 1336.83 1707.83 1337.03 1706.9 1336.56 1705.26 1335.41 1702.91 1334.47 1700.97 1333.52 1699.04 1332.58 1697.1 1328.88 1702 1322.28 1704.77 1313.21 1705.42 1303.1 1706.15 1294.39 1704.35 1287.43 1699.97 1282.08 1696.59 1278.93 1692.11 1277.74 1686.7 1276.26 1679.9 1277.74 1674.66 1281.86 1670.78 1285.88 1666.99 1291.32 1664.81 1298.52 1664.29ZM1236.8 1666.5C1243.9 1666.5 1249.23 1667 1252.82 1668.07 1256.46 1669.15 1259.13 1670.52 1260.83 1672.23 1262.55 1673.94 1263.78 1677.12 1264.48 1681.78 1265.04 1685.97 1265.61 1690.15 1266.16 1694.34 1266.7 1697.91 1267.39 1700.53 1268.28 1702.21 1269.16 1703.89 1270.62 1705.67 1272.7 1707.55 1266.12 1707.76 1259.54 1707.92 1252.96 1708.02 1252.38 1707.31 1251.67 1706.26 1250.83 1704.86 1250.46 1704.23 1250.2 1703.81 1250.05 1703.61 1246.81 1705.45 1243.24 1706.81 1239.38 1707.71 1235.5 1708.61 1231.33 1709.04 1226.91 1709 1219.11 1708.92 1213.08 1707.66 1208.94 1705.25 1204.88 1702.88 1203.21 1699.91 1203.81 1696.45 1204.2 1694.15 1205.51 1692.15 1207.67 1690.4 1209.81 1688.67 1212.58 1687.36 1215.99 1686.48 1219.38 1685.6 1224.15 1684.85 1230.32 1684.18 1238.56 1683.3 1244.21 1682.36 1247.31 1681.51 1247.29 1681.15 1247.27 1680.8 1247.25 1680.44 1247.14 1678.37 1246.25 1676.91 1244.61 1676.03 1242.98 1675.17 1239.97 1674.75 1235.57 1674.74 1232.59 1674.73 1230.26 1675.09 1228.55 1675.83 1226.83 1676.56 1225.38 1677.87 1224.18 1679.74 1219.03 1679.08 1213.92 1678.37 1208.84 1677.62 1211.21 1673.77 1214.51 1670.95 1218.8 1669.13 1223.01 1667.34 1228.97 1666.49 1236.8 1666.5ZM1151.4 1647.54C1156.48 1648.12 1161.56 1648.65 1166.65 1649.12 1159.37 1664.21 1152.09 1679.3 1144.82 1694.38 1161.37 1695.93 1177.97 1697.05 1194.58 1697.75 1193.89 1700.89 1193.2 1704.03 1192.51 1707.18 1168.1 1706.14 1143.71 1704.26 1119.43 1701.47 1130.09 1683.49 1140.74 1665.52 1151.4 1647.54Z" fill-rule="evenodd"/><text fill="#000000" fill-opacity="0" font-family="Arial,Arial_MSFontService,sans-serif" font-size="74.1649" x="1119.43" y="1712.43">Lag</text><path d="M980.085 1850.67C987.304 1852.18 992.626 1854.87 996.051 1858.75 999.475 1862.63 1001.21 1867.36 1001.25 1872.95L989.134 1872.69C988.913 1869.66 987.845 1867.08 985.931 1864.96 984.016 1862.83 981.367 1861.41 977.982 1860.7 972.852 1859.63 968.432 1860.4 964.722 1863.01 961.013 1865.63 958.487 1870.14 957.146 1876.54 955.699 1883.44 956.148 1888.94 958.492 1893.03 960.836 1897.13 964.494 1899.7 969.465 1900.74 971.924 1901.25 974.491 1901.29 977.166 1900.84 979.841 1900.39 982.208 1899.67 984.268 1898.66L985.815 1891.29 972.368 1888.47 974.422 1878.67 999.728 1883.98 994.873 1907.14C991.915 1909 987.912 1910.35 982.865 1911.19 977.818 1912.02 972.902 1911.93 968.115 1910.93 962.033 1909.66 956.999 1907.27 953.012 1903.77 949.025 1900.27 946.392 1895.91 945.113 1890.69 943.833 1885.46 943.779 1880.06 944.948 1874.48 946.218 1868.43 948.615 1863.31 952.14 1859.14 955.665 1854.96 960.137 1852.13 965.556 1850.64 969.689 1849.49 974.532 1849.5 980.085 1850.67Z" fill-rule="evenodd"/><text fill="#000000" fill-opacity="0" font-family="Arial,Arial_MSFontService,sans-serif" font-size="61.9667" x="944.11" y="1904.01">G</text><path d="M1004.41 1873.19 1016.4 1874.95 1022.15 1906.68 1036.53 1877.9 1048.19 1879.61 1027.15 1918.39 1023.37 1925.41C1022.02 1927.75 1020.8 1929.51 1019.71 1930.69 1018.63 1931.87 1017.44 1932.78 1016.16 1933.42 1014.88 1934.07 1013.35 1934.49 1011.59 1934.7 1009.82 1934.91 1007.87 1934.85 1005.73 1934.54 1003.57 1934.22 1001.48 1933.68 999.458 1932.92L999.749 1923.95C1001.46 1924.56 1003.03 1924.97 1004.44 1925.17 1007.06 1925.56 1009.12 1925.07 1010.6 1923.72 1012.08 1922.37 1013.33 1920.55 1014.35 1918.27Z" fill-rule="evenodd"/><text fill="#000000" fill-opacity="0" font-family="Arial,Arial_MSFontService,sans-serif" font-size="61.6327" x="999.458" y="1927.12">y</text><path d="M1077.64 1881.77C1080.14 1882.03 1082.38 1882.72 1084.35 1883.84 1086.32 1884.96 1087.77 1886.28 1088.68 1887.79 1089.59 1889.3 1090.16 1890.96 1090.39 1892.78 1090.62 1894.59 1090.56 1897.16 1090.21 1900.46L1087.39 1927.06 1076.06 1925.86 1078.38 1904.01C1078.87 1899.39 1078.95 1896.38 1078.61 1894.97 1078.27 1893.56 1077.59 1892.42 1076.58 1891.56 1075.58 1890.69 1074.31 1890.17 1072.77 1890.01 1070.81 1889.8 1069 1890.15 1067.32 1891.06 1065.65 1891.97 1064.43 1893.28 1063.67 1895 1062.9 1896.71 1062.26 1899.95 1061.76 1904.74L1059.7 1924.12 1048.38 1922.92 1052.92 1880.12 1063.44 1881.24 1062.77 1887.52C1067.02 1883.08 1071.97 1881.16 1077.64 1881.77Z" fill-rule="evenodd"/><text fill="#000000" fill-opacity="0" font-family="Arial,Arial_MSFontService,sans-serif" font-size="46.9384" x="1048.38" y="1921.19">n</text><path d="M1119.04 1894.07C1116.32 1893.88 1114 1894.78 1112.08 1896.77 1110.17 1898.76 1109.06 1901.92 1108.75 1906.26 1108.42 1910.82 1109.07 1914.21 1110.69 1916.45 1112.3 1918.7 1114.4 1919.91 1116.99 1920.09 1119.77 1920.29 1122.19 1919.37 1124.25 1917.34 1126.32 1915.3 1127.51 1912.16 1127.81 1907.9 1128.12 1903.45 1127.44 1900.09 1125.76 1897.8 1124.08 1895.51 1121.84 1894.27 1119.04 1894.07ZM1116.74 1885.17C1122.05 1885.55 1126.27 1888.19 1129.39 1893.1L1129.81 1887.08 1140.45 1887.83 1137.71 1926.36C1137.35 1931.42 1136.67 1935.18 1135.65 1937.63 1134.64 1940.07 1133.33 1941.96 1131.72 1943.28 1130.11 1944.6 1128.01 1945.58 1125.44 1946.21 1122.86 1946.84 1119.64 1947.01 1115.79 1946.74 1108.51 1946.22 1103.44 1944.61 1100.57 1941.9 1097.7 1939.19 1096.4 1935.93 1096.68 1932.1 1096.7 1931.72 1096.75 1931.26 1096.81 1930.73L1109.68 1933.22C1109.79 1934.75 1110.21 1935.82 1110.95 1936.44 1111.97 1937.33 1113.64 1937.85 1115.96 1938.02 1118.93 1938.23 1121.18 1937.94 1122.73 1937.16 1123.77 1936.63 1124.59 1935.73 1125.19 1934.45 1125.61 1933.53 1125.91 1931.8 1126.09 1929.27L1126.53 1923C1122.81 1927.4 1118.36 1929.41 1113.18 1929.04 1107.42 1928.63 1103.02 1925.87 1100 1920.75 1097.63 1916.71 1096.65 1911.82 1097.06 1906.08 1097.57 1898.89 1099.69 1893.51 1103.42 1889.96 1107.16 1886.4 1111.6 1884.81 1116.74 1885.17Z" fill-rule="evenodd"/><text fill="#000000" fill-opacity="0" font-family="Arial,Arial_MSFontService,sans-serif" font-size="61.7419" x="1096.64" y="1939.15">g</text><path d="M1166.35 1896.73C1163.86 1896.62 1161.77 1897.44 1160.08 1899.19 1158.39 1900.93 1157.49 1903.35 1157.39 1906.46L1174.39 1907.16C1174.45 1903.86 1173.7 1901.32 1172.15 1899.54 1170.6 1897.76 1168.67 1896.82 1166.35 1896.73ZM1166.02 1887.99C1172.42 1888.26 1177.38 1890.58 1180.9 1894.96 1184.42 1899.33 1185.92 1905.88 1185.4 1914.59L1156.89 1913.41C1156.84 1916.79 1157.65 1919.45 1159.32 1921.4 1161 1923.35 1163.15 1924.38 1165.77 1924.49 1167.55 1924.56 1169.07 1924.14 1170.32 1923.22 1171.58 1922.29 1172.56 1920.77 1173.27 1918.63L1184.53 1921.01C1182.9 1925.1 1180.47 1928.17 1177.23 1930.22 1174 1932.26 1170.02 1933.18 1165.29 1932.99 1157.81 1932.68 1152.38 1930 1148.99 1924.97 1146.32 1920.94 1145.11 1915.94 1145.36 1909.97 1145.65 1902.85 1147.74 1897.34 1151.64 1893.46 1155.53 1889.58 1160.32 1887.76 1166.02 1887.99Z" fill-rule="evenodd"/><text fill="#000000" fill-opacity="0" font-family="Arial,Arial_MSFontService,sans-serif" font-size="45.0397" x="1145.32" y="1927.38">e</text><path d="M1192.39 1905.69 1214.75 1906.15 1214.52 1917.53 1192.15 1917.08Z" fill-rule="evenodd"/><text fill="#000000" fill-opacity="0" font-family="Arial,Arial_MSFontService,sans-serif" font-size="11.8424" x="1192.15" y="1916.05">-</text><path d="M1236.76 1898.18C1234.28 1898.18 1232.22 1899.08 1230.6 1900.89 1228.98 1902.7 1228.18 1905.16 1228.21 1908.26L1245.23 1908.27C1245.15 1904.98 1244.3 1902.47 1242.68 1900.75 1241.06 1899.04 1239.09 1898.18 1236.76 1898.18ZM1236.08 1889.46C1242.48 1889.47 1247.53 1891.58 1251.23 1895.81 1254.93 1900.04 1256.7 1906.52 1256.53 1915.25L1228 1915.24C1228.08 1918.61 1229 1921.24 1230.75 1923.12 1232.51 1925 1234.7 1925.94 1237.32 1925.94 1239.1 1925.94 1240.6 1925.45 1241.82 1924.48 1243.03 1923.51 1243.95 1921.94 1244.57 1919.78L1255.92 1921.69C1254.46 1925.85 1252.15 1929.02 1249.01 1931.19 1245.86 1933.37 1241.92 1934.45 1237.19 1934.45 1229.71 1934.45 1224.17 1932 1220.58 1927.11 1217.74 1923.19 1216.33 1918.24 1216.33 1912.27 1216.33 1905.14 1218.2 1899.55 1221.93 1895.52 1225.66 1891.48 1230.38 1889.46 1236.08 1889.46Z" fill-rule="evenodd"/><text fill="#000000" fill-opacity="0" font-family="Arial,Arial_MSFontService,sans-serif" font-size="44.986" x="1216.33" y="1928.83">e</text><path d="M1277.72 1872.6C1280.97 1872.54 1284.15 1872.96 1287.27 1873.87L1285.89 1881.85C1284.07 1881.45 1282.32 1881.27 1280.65 1881.3 1279 1881.33 1277.83 1881.74 1277.13 1882.52 1276.42 1883.3 1276.09 1884.79 1276.14 1886.98L1276.2 1890.02 1284.7 1889.85 1284.88 1898.81 1276.37 1898.97 1277.03 1933.05 1265.64 1933.27 1264.98 1899.19 1258.66 1899.31 1258.49 1890.36 1264.81 1890.24 1264.75 1887C1264.68 1883.38 1265.01 1880.67 1265.75 1878.87 1266.48 1877.07 1267.87 1875.59 1269.92 1874.43 1271.96 1873.27 1274.56 1872.66 1277.72 1872.6Z" fill-rule="evenodd"/><text fill="#000000" fill-opacity="0" font-family="Arial,Arial_MSFontService,sans-serif" font-size="60.6768" x="1258.49" y="1925.68">f</text><path d="M1303.97 1871.78C1307.21 1871.67 1310.4 1872.04 1313.54 1872.91L1312.28 1880.9C1310.46 1880.53 1308.71 1880.38 1307.03 1880.43 1305.39 1880.49 1304.22 1880.92 1303.53 1881.71 1302.84 1882.51 1302.54 1884 1302.61 1886.18L1302.72 1889.22 1311.22 1888.93 1311.54 1897.88 1303.03 1898.17 1304.22 1932.24 1292.84 1932.63 1291.65 1898.57 1285.33 1898.79 1285.02 1889.84 1291.34 1889.62 1291.22 1886.38C1291.1 1882.76 1291.39 1880.05 1292.09 1878.24 1292.8 1876.43 1294.17 1874.93 1296.2 1873.74 1298.22 1872.54 1300.81 1871.89 1303.97 1871.78Z" fill-rule="evenodd"/><text fill="#000000" fill-opacity="0" font-family="Arial,Arial_MSFontService,sans-serif" font-size="60.8718" x="1285.02" y="1925.03">f</text><path d="M1333.72 1895.5C1331.24 1895.64 1329.24 1896.66 1327.72 1898.56 1326.21 1900.46 1325.55 1902.96 1325.75 1906.06L1342.75 1905.09C1342.48 1901.81 1341.49 1899.35 1339.77 1897.73 1338.06 1896.11 1336.04 1895.37 1333.72 1895.5ZM1332.54 1886.84C1338.93 1886.47 1344.09 1888.3 1348.03 1892.31 1351.96 1896.32 1354.1 1902.69 1354.43 1911.41L1325.95 1913.03C1326.22 1916.4 1327.29 1918.97 1329.15 1920.74 1331.01 1922.52 1333.24 1923.33 1335.86 1923.18 1337.64 1923.08 1339.11 1922.51 1340.27 1921.47 1341.43 1920.43 1342.26 1918.81 1342.75 1916.62L1354.19 1917.88C1352.97 1922.11 1350.85 1925.41 1347.83 1927.76 1344.81 1930.11 1340.94 1931.42 1336.22 1931.69 1328.75 1932.11 1323.08 1929.98 1319.22 1925.3 1316.16 1921.55 1314.46 1916.7 1314.13 1910.74 1313.72 1903.62 1315.27 1897.93 1318.76 1893.69 1322.25 1889.44 1326.84 1887.16 1332.54 1886.84Z" fill-rule="evenodd"/><text fill="#000000" fill-opacity="0" font-family="Arial,Arial_MSFontService,sans-serif" font-size="44.9468" x="1314.06" y="1926.12">e</text><path d="M1358.45 1869.82 1369.8 1868.84 1372.52 1900.25 1384.49 1884 1398.46 1882.79 1385.16 1899.72 1403.23 1925.57 1391 1926.64 1378.55 1908.31 1373.74 1914.3 1374.93 1928.03 1363.58 1929.01Z" fill-rule="evenodd"/><text fill="#000000" fill-opacity="0" font-family="Arial,Arial_MSFontService,sans-serif" font-size="60.1744" x="1358.45" y="1921.49">k</text><path d="M1414.66 1865.56 1416.37 1880.66 1424.1 1879.78 1425.13 1888.8 1417.4 1889.68 1419.36 1906.91C1419.75 1910.4 1420.06 1912.43 1420.27 1912.99 1420.49 1913.55 1420.88 1913.99 1421.44 1914.3 1422.01 1914.62 1422.67 1914.74 1423.42 1914.65 1424.47 1914.53 1425.94 1914 1427.84 1913.05L1429.81 1921.71C1427.31 1923.14 1424.39 1924.04 1421.06 1924.42 1419.02 1924.65 1417.14 1924.52 1415.43 1924.02 1413.71 1923.52 1412.41 1922.78 1411.52 1921.78 1410.63 1920.77 1409.94 1919.37 1409.43 1917.55 1409.04 1916.26 1408.62 1913.61 1408.16 1909.61L1406.04 1890.97 1400.85 1891.56 1399.82 1882.54 1405.02 1881.95 1404.05 1873.45Z" fill-rule="evenodd"/><text fill="#000000" fill-opacity="0" font-family="Arial,Arial_MSFontService,sans-serif" font-size="58.9739" x="1399.82" y="1917.16">t</text><path d="M1448.36 1884.27C1445.9 1884.63 1444 1885.82 1442.66 1887.84 1441.31 1889.87 1440.88 1892.42 1441.35 1895.49L1458.19 1893.04C1457.64 1889.79 1456.44 1887.43 1454.59 1885.97 1452.74 1884.5 1450.66 1883.94 1448.36 1884.27ZM1446.43 1875.75C1452.76 1874.83 1458.07 1876.19 1462.34 1879.85 1466.61 1883.5 1469.29 1889.65 1470.39 1898.31L1442.15 1902.41C1442.72 1905.75 1444 1908.21 1446.01 1909.82 1448.02 1911.43 1450.32 1912.04 1452.91 1911.66 1454.68 1911.41 1456.09 1910.71 1457.16 1909.57 1458.22 1908.44 1458.9 1906.75 1459.21 1904.52L1470.71 1904.78C1469.87 1909.11 1468.04 1912.57 1465.24 1915.18 1462.44 1917.78 1458.7 1919.42 1454.02 1920.1 1446.61 1921.18 1440.78 1919.56 1436.52 1915.23 1433.15 1911.76 1431.03 1907.07 1430.18 1901.16 1429.15 1894.11 1430.19 1888.31 1433.3 1883.78 1436.41 1879.24 1440.79 1876.57 1446.43 1875.75Z" fill-rule="evenodd"/><text fill="#000000" fill-opacity="0" font-family="Arial,Arial_MSFontService,sans-serif" font-size="44.9545" x="1429.79" y="1914.81">e</text><path d="M1497.35 1866.94C1499.81 1866.45 1502.15 1866.45 1504.37 1866.93 1506.59 1867.42 1508.36 1868.24 1509.68 1869.41 1511 1870.58 1512.04 1872 1512.79 1873.67 1513.55 1875.34 1514.25 1877.8 1514.9 1881.06L1520.11 1907.3 1508.93 1909.51 1504.66 1887.97C1503.76 1883.41 1502.93 1880.51 1502.19 1879.27 1501.45 1878.02 1500.47 1877.14 1499.24 1876.61 1498.02 1876.08 1496.66 1875.96 1495.15 1876.26 1493.21 1876.65 1491.58 1877.52 1490.26 1878.89 1488.93 1880.25 1488.15 1881.86 1487.93 1883.73 1487.71 1885.59 1488.07 1888.88 1489 1893.6L1492.8 1912.72 1481.62 1914.93 1473.25 1872.72 1483.62 1870.66 1484.85 1876.86C1487.59 1871.36 1491.76 1868.05 1497.35 1866.94Z" fill-rule="evenodd"/><text fill="#000000" fill-opacity="0" font-family="Arial,Arial_MSFontService,sans-serif" font-size="48.3591" x="1473.25" y="1908.89">n</text><text font-family="Arial,Arial_MSFontService,sans-serif" font-weight="400" font-size="128" transform="matrix(1 0 0 1 1023.23 2109)">Historik</text><rect x="848" y="2460" width="779" height="233" stroke="#000000" stroke-width="13.75" stroke-linejoin="round" stroke-miterlimit="10" fill="none"/><text font-family="Arial,Arial_MSFontService,sans-serif" font-weight="700" font-size="83" transform="matrix(1 0 0 1 1035.83 2556)">Læring<tspan font-size="83" x="302.5" y="0">og</tspan><tspan font-size="83" x="-137.5" y="99">sammenkædning</tspan></text><rect x="848" y="2980" width="779" height="233" stroke="#000000" stroke-width="13.75" stroke-linejoin="round" stroke-miterlimit="10" fill="none"/><text font-family="Arial,Arial_MSFontService,sans-serif" font-weight="400" font-size="147" transform="matrix(1 0 0 1 915.521 3151)">HEALING</text><rect x="1757" y="1420" width="520" height="234" stroke="#000000" stroke-width="13.75" stroke-linejoin="round" stroke-miterlimit="10" fill="none"/><text font-family="Arial,Arial_MSFontService,sans-serif" font-weight="700" font-size="83" transform="matrix(1 0 0 1 1833.69 1517)">Adfærds-<tspan font-size="83" x="20.625" y="99">mønstre</tspan></text><rect x="1754" y="1940" width="520" height="233" stroke="#000000" stroke-width="13.75" stroke-linejoin="round" stroke-miterlimit="10" fill="none"/><text font-family="Arial,Arial_MSFontService,sans-serif" font-weight="700" font-size="83" transform="matrix(1 0 0 1 1917.69 2037)">Livs<tspan font-size="83" x="165" y="0">-</tspan><tspan font-size="83" x="-75.625" y="99">lektioner</tspan></text><path d="M11.0014-8.24811 363.797 462.314C368.352 468.39 367.119 477.008 361.043 481.563 354.967 486.118 346.349 484.886 341.794 478.81L-11.0014 8.24811C-15.5567 2.1722-14.324-6.44611-8.24811-11.0014-2.1722-15.5567 6.44611-14.324 11.0014-8.24811ZM377.551 434.816 394.036 525.569 311.543 484.305Z" transform="matrix(-1 0 0 1 917.036 836)"/><path d="M1579.06 827.824 1922.52 1292.23C1927.03 1298.34 1925.74 1306.95 1919.64 1311.46 1913.53 1315.98 1904.92 1314.69 1900.41 1308.59L1556.94 844.176C1552.43 838.07 1553.72 829.46 1559.82 824.945 1565.93 820.429 1574.54 821.718 1579.06 827.824ZM1936.45 1264.83 1952.34 1355.69 1870.12 1313.88Z"/><path d="M1251.75 771 1251.75 936.108C1251.75 943.702 1245.59 949.858 1238 949.858 1230.41 949.858 1224.25 943.702 1224.25 936.108L1224.25 771C1224.25 763.406 1230.41 757.25 1238 757.25 1245.59 757.25 1251.75 763.406 1251.75 771ZM1279.25 922.358 1238 1004.86 1196.75 922.358Z"/><path d="M9.31734-10.1119 88.7338 63.0647C94.3185 68.2105 94.6742 76.9092 89.5283 82.4939 84.3825 88.0785 75.6838 88.4342 70.0991 83.2884L-9.31734 10.1119C-14.902 4.96603-15.2577-3.73272-10.1119-9.31734-4.96603-14.902 3.73272-15.2577 9.31734-10.1119ZM97.2566 33.5236 129.976 119.763 41.3526 94.1947Z" transform="matrix(-1 0 0 1 912.976 1242)"/><path d="M1571.32 1231.89 1650.69 1305.06C1656.27 1310.2 1656.63 1318.9 1651.48 1324.49 1646.33 1330.07 1637.64 1330.42 1632.05 1325.28L1552.68 1252.11C1547.1 1246.96 1546.74 1238.26 1551.89 1232.68 1557.04 1227.1 1565.74 1226.74 1571.32 1231.89ZM1659.22 1275.52 1691.92 1361.76 1603.3 1336.18Z"/><path d="M471.75 1680 471.75 1845.11C471.75 1852.7 465.594 1858.86 458 1858.86 450.406 1858.86 444.25 1852.7 444.25 1845.11L444.25 1680C444.25 1672.41 450.406 1666.25 458 1666.25 465.594 1666.25 471.75 1672.41 471.75 1680ZM499.25 1831.36 458 1913.86 416.75 1831.36Z"/><path d="M13.7488-0.181514 15.9287 164.933C16.0289 172.526 9.95463 178.763 2.36138 178.863-5.23187 178.963-11.4687 172.889-11.5689 165.296L-13.7488 0.181514C-13.849-7.41174-7.77477-13.6486-0.181514-13.7488 7.41174-13.849 13.6486-7.77477 13.7488-0.181514ZM43.2448 150.821 3.08743 233.858-39.2481 151.91Z" transform="matrix(-1 0 0 1 2017.09 1680)"/><path d="M599 2191.75 752.632 2396.59C757.188 2402.67 755.957 2411.29 749.882 2415.84 743.807 2420.4 735.188 2419.17 730.632 2413.09L577 2208.25C572.444 2202.17 573.675 2193.56 579.75 2189 585.825 2184.44 594.444 2185.67 599 2191.75ZM766.382 2369.09 782.882 2459.84 700.382 2418.59Z"/><path d="M11-8.25 164.632 196.593C169.188 202.668 167.957 211.286 161.882 215.843 155.807 220.399 147.188 219.168 142.632 213.093L-11 8.25C-15.5563 2.17487-14.3251-6.44365-8.25-11-2.17487-15.5563 6.44365-14.3251 11-8.25ZM178.382 169.093 194.882 259.843 112.382 218.592Z" transform="matrix(-1 0 0 1 1886.88 2200)"/><path d="M1682.93 1728.99 1670.83 1737.51 1650.52 1748.58 1629.83 1758.77 1608.31 1768.35 1586.06 1777.33 1563.07 1785.74 1539.39 1793.51 1515.19 1800.62 1490.37 1807.16 1464.98 1813.06 1439.17 1818.26 1412.9 1822.88 1386.29 1826.88 1359.31 1830.17 1332.1 1832.83 1304.63 1834.79 1276.92 1836.12 1249.14 1836.75 1221.25 1836.69 1193.28 1835.99 1165.36 1834.53 1137.46 1832.38 1109.67 1829.54 1082.06 1825.99 1054.63 1821.68 1027.44 1816.67 1000.48 1810.9 973.9 1804.37 947.709 1797.12 915.546 1786.91 899.955 1781.35 884.754 1775.62 869.879 1769.62 855.435 1763.36 841.38 1756.84 827.767 1750.13 814.223 1743.03 792.489 1729.17 807.279 1705.98 828.52 1719.53 827.509 1718.95 840.384 1725.7 840.079 1725.54 853.392 1732.1 853.096 1731.96 866.846 1738.34 866.533 1738.2 880.658 1744.32 880.332 1744.19 894.894 1750.06 894.596 1749.94 909.533 1755.57 909.305 1755.49 924.555 1760.92 924.099 1760.77 955.786 1770.83 955.292 1770.69 981.042 1777.81 980.657 1777.71 1006.84 1784.15 1006.44 1784.05 1033 1789.74 1032.61 1789.66 1059.43 1794.6 1059.07 1794.54 1086.13 1798.79 1085.75 1798.74 1113 1802.24 1112.65 1802.2 1140.09 1805.01 1139.74 1804.98 1167.31 1807.1 1166.97 1807.08 1194.53 1808.52 1194.15 1808.5 1221.78 1809.19 1221.47 1809.19 1249.03 1809.25 1248.69 1809.25 1276.12 1808.63 1275.78 1808.64 1303.15 1807.33 1302.83 1807.35 1329.96 1805.41 1329.6 1805.44 1356.48 1802.82 1356.15 1802.85 1382.77 1799.6 1382.4 1799.65 1408.65 1795.71 1408.31 1795.77 1434.24 1791.21 1433.91 1791.27 1459.35 1786.15 1458.95 1786.23 1483.95 1780.42 1483.56 1780.52 1508 1774.08 1507.62 1774.18 1531.43 1767.18 1531.03 1767.31 1554.28 1759.68 1553.84 1759.84 1576.4 1751.59 1575.97 1751.75 1597.79 1742.94 1597.35 1743.13 1618.41 1733.75 1617.93 1733.98 1638.11 1724.04 1637.61 1724.3 1656.98 1713.74 1655.65 1714.57 1667.1 1706.51ZM1639.99 1691.98 1731.17 1678.1 1687.57 1759.38ZM787.362 1759.21 743.686 1677.97 834.885 1691.78Z"/><path d="M1507.5 1328.5C1507.5 1411.9 1385.5 1479.5 1235 1479.5 1084.5 1479.5 962.5 1411.9 962.5 1328.5 1005.07 1411.9 1161.58 1460.38 1312.07 1436.79 1406.74 1421.95 1480.73 1380.96 1507.5 1328.5Z" stroke="#000000" stroke-width="6.875" stroke-miterlimit="8" fill-rule="evenodd"/><path d="M1513.5 1406.5C1513.5 1489.9 1391.5 1557.5 1241 1557.5 1090.5 1557.5 968.5 1489.9 968.5 1406.5 1011.07 1489.9 1167.58 1538.38 1318.07 1514.79 1412.74 1499.95 1486.73 1458.96 1513.5 1406.5Z" stroke="#000000" stroke-width="6.875" stroke-miterlimit="8" fill-rule="evenodd"/><path d="M1510.5 1475.5C1510.5 1558.34 1388.5 1625.5 1238 1625.5 1087.5 1625.5 965.5 1558.34 965.5 1475.5 1008.07 1558.34 1164.58 1606.51 1315.07 1583.07 1409.74 1568.34 1483.73 1527.61 1510.5 1475.5Z" stroke="#000000" stroke-width="6.875" stroke-miterlimit="8" fill-rule="evenodd"/><path d="M1251.75 2720 1251.75 2885.11C1251.75 2892.7 1245.59 2898.86 1238 2898.86 1230.41 2898.86 1224.25 2892.7 1224.25 2885.11L1224.25 2720C1224.25 2712.41 1230.41 2706.25 1238 2706.25 1245.59 2706.25 1251.75 2712.41 1251.75 2720ZM1279.25 2871.36 1238 2953.86 1196.75 2871.36Z"/></g></svg>